<svg xmlns="http://www.w3.org/2000/svg" viewBox="0 0 299 299"><path fill="#FD5433" d="M185.5 247v-16h-26v-24.6c20-1.7 37-15.7 42.8-34.6 1.4-4.6 2.2-9.4 2.2-14.4V119h-6v5h-4V61.1c0-24.3-20.3-44.1-44.6-44.1h-.5c-24.3 0-43.9 19.8-43.9 44.1V124h-4v-5h-6v38.4c0 5 .8 9.9 2.2 14.4 5.8 18.9 21.8 32.8 42.8 34.6V231h-25v16h-23v22h115v-22h-22zm3-115h-19v6h19v8h-19v6h19v1.7c0 2-.1 4.3-.4 5.3h-76.9c-.3-1 .3-3.4.3-5.3V152h19v-6h-19v-8h19v-6h-19v-9h19v-5h-19v-9h19v-5h-19v-9h19v-6h-19v-8h19v-6h-19v-9h19v-5h-19.8c0-3 .3-5 .8-8h76.1c.5 3 .8 5 .8 8h-19v5h19v9h-19v6h19v8h-19v6h19v9h-19v5h19v9h-19v5h19v9zm-1.6 33c-4.8 16-19.6 27-37 27h-.5c-17.4 0-32.1-11-37-27h74.5zM149.4 22h.5c16.6 0 30.7 11 36.2 26h-73c5.5-15 19.7-26 36.3-26zm-47.9 135.2V130h4v23.7c0 24.3 19.5 44.3 43.9 44.3h.5c24.3 0 44.6-20 44.6-44.3V130h4v27.2c0 24.1-19.7 43.8-43.8 43.8h-10.1c-24.1 0-43.1-19.7-43.1-43.8zm45 49.8h7v24h-7v-24zm-26 29H180.5v11h-60v-11zm82 28h-105v-11H202.5v11zm-53 35C67.1 299 0 231.9 0 149.5S67.1 0 149.5 0 299 67.1 299 149.5 231.9 299 149.5 299zm0-294C69.8 5 5 69.8 5 149.5S69.8 294 149.5 294 294 229.2 294 149.5 229.2 5 149.5 5z"/></svg>
