<svg xmlns="http://www.w3.org/2000/svg" viewBox="0 0 245 245"><path fill="#FD5433" d="M159.4 124.2l47.8-47.8 3-3 3.5-3.5-3-3-2.4 2.4-3-3 2.4-2.4-32.2-32.2L46.1 161.2l1.7 1.7-8.4 34.6 2.5 2.5 34.6-8.4 1.8 1.8 90.6-90.6 3 3-15.5 15.5 3 2.9zm-51.9-12.5l-13.7 13.7-3-3 13.7-13.7 3 3zm-39.4 33.4l3 3L55 164.2l-3-3 16.1-16.1zm42.4 10.2L90.2 135l3.6-3.6 20.3 20.3-3.6 3.6zm-6.6 6.5l-20.3-20.3 3.6-3.6 20.3 20.3-3.6 3.6zm-6.6 6.6L77 148.1l3.6-3.6 20.3 20.3-3.6 3.6zm-19 19.1L58 167.2l16.1-16.1 20.3 20.3-16.1 16.1zm-7.2-45.4l3.6-3.6 3 3-3.6 3.6-3-3zm6.6-6.5l3.6-3.6 3 3-3.6 3.6-3-3zm6.5-6.6l3.6-3.6 3 3-3.6 3.6-3-3zm26.3-14.3l20.3 20.3-13.8 13.7-20.3-20.3 13.8-13.7zm-59.3 51.6L73 188.2l-29 7.1 7.2-29zM175.5 37.8l3 3-11.3 11.3-3-3 11.3-11.3zM201.7 64l-11.3 11.3L170.1 55l11.3-11.3L201.7 64zm3.6 8.4l-30.4 30.4-3-3 30.4-30.4 3 3zM122.5 245C55 245 0 190 0 122.5S55 0 122.5 0 245 55 245 122.5 190 245 122.5 245zm0-240C57.7 5 5 57.7 5 122.5S57.7 240 122.5 240 240 187.3 240 122.5 187.3 5 122.5 5z"/></svg>
